<?xml version="1.0" encoding="UTF-8"?> <svg xmlns="http://www.w3.org/2000/svg" width="1728" height="289" viewBox="0 0 1728 289" fill="none"><path fill-rule="evenodd" clip-rule="evenodd" d="M1288.88 107.201L1242.37 155.938L1324.49 278.928V284.3H1281.89L1214.74 187.021H1213.01L1178.28 220.791V284.3H1138.95V0.136719H1178.28V170.52H1180.2L1272.49 74.7765L1366.97 74.7748V35.8248C1366.97 14.9108 1380.02 0.136719 1400.93 0.136719H1455.42V32.7549H1406.3V74.7748H1514.33V284.143H1474.99V107.201H1406.3V284.299H1366.97V107.201H1288.88ZM1021.41 70.938C1070.33 70.938 1101.42 97.4163 1107.94 135.791L1069.95 144.233C1064 117.947 1047.69 103.172 1021.41 103.172C986.485 103.172 964.036 131.186 964.036 179.537C964.036 225.778 986.485 255.902 1021.6 255.902C1045.97 255.902 1064.39 244.006 1069.76 216.377H1109.09C1102.57 262.234 1072.44 288.137 1021.6 288.137C961.542 288.137 922.592 245.349 922.592 179.537C922.592 113.534 961.542 70.938 1021.41 70.938ZM603.15 252.163C603.15 271.926 613.895 284.014 636.728 284.014H690.836V252.547H642.484V105.957H690.836V74.4903H642.484V19.9988H607.564L603.918 74.4903H568.805V105.957H603.15V252.163ZM477.465 288.137C419.52 288.137 389.012 262.426 386.326 220.982H425.468C428.346 244.774 445.614 256.862 477.465 256.862C505.095 256.862 523.898 246.117 523.898 225.97C523.898 203.393 498.519 198.666 470.131 193.379C434.106 186.669 393.234 179.056 393.234 132.913C393.234 94.922 425.276 70.938 474.779 70.938C523.323 70.938 550.952 91.6601 558.243 124.278L520.828 132.145C516.031 112.958 502.792 102.213 474.587 102.213C449.644 102.213 432.951 112.19 432.951 130.226C432.951 153.006 458.328 157.696 486.682 162.937C522.572 169.57 563.232 177.085 563.232 223.284C563.232 263.385 529.462 288.137 477.465 288.137ZM712.803 228.641C712.803 264.719 738.884 288.132 779.733 288.132C816.362 288.132 841.868 266.062 848.197 239.579H849.731V284.294H888.662V146.889C888.662 100.064 858.553 70.8944 804.088 70.8944C750.966 70.8944 722.967 98.7207 715.296 133.648L753.268 139.597C758.254 116.952 774.363 101.983 804.088 101.983C832.471 101.983 849.156 115.225 849.156 139.789C849.156 150.919 843.019 154.565 829.019 156.676L787.595 162.625C739.076 169.726 712.803 190.26 712.803 228.641ZM849.156 188.533C849.156 229.984 829.403 256.659 792.006 256.659C769.377 256.659 754.61 245.337 754.61 225.187C754.61 206.572 768.034 195.633 795.075 190.835L849.156 181.624V188.533ZM1604.32 177.977L1538.89 279.029V284.408H1578.93L1643.2 177.977L1582.64 74.6191H1538.3V79.9983L1604.32 177.977ZM1716.44 79.9983L1661.17 162.035L1641.03 127.661L1672.11 74.6191H1716.44V79.9983Z" fill="black"></path><path d="M1641.03 226.8L1675.82 284.41H1715.85V279.031L1660.82 194.026L1641.03 226.8Z" fill="black"></path><path fill-rule="evenodd" clip-rule="evenodd" d="M1716.44 80.0047L1661.17 162.042L1641.03 127.667L1672.11 74.6255H1716.44V80.0047Z" fill="black"></path><path d="M1641.03 226.799L1675.82 284.41H1715.86V279.031L1660.82 194.026L1641.03 226.799Z" fill="black"></path><path d="M248.649 0.137417L295.254 73.9029L160.061 73.9029L90.4173 189.629L49.9432 114.881L115.216 1.34415L115.478 1.47253L115.478 0.137405L248.649 0.137417Z" fill="black"></path><path d="M46.6046 285.108L0 211.343H135.193L204.837 95.6167L245.311 170.365L180.038 283.901L179.775 283.773V285.108H46.6046Z" fill="black"></path></svg> 